<svg width="715" height="309" viewBox="0 0 715 309" fill="none" xmlns="http://www.w3.org/2000/svg">
<path d="M39.0069 154.56L29.0469 138H35.0069L41.6869 149.48H41.7669L48.4469 138H54.4069L44.4469 154.56V166H39.0069V154.56ZM52.8047 161.92V150.24L56.9247 146.08H68.1647L72.3247 150.24V157.8H58.0847V160.36L59.3647 161.68H65.8847L67.0847 160.44V159.4H72.2847V162L68.3247 166H56.8447L52.8047 161.92ZM67.0447 154.12V151.8L65.6847 150.4H59.4447L58.0847 151.8V154.12H67.0447ZM78.325 161.92V150.52H74.725V146.08H78.405V139.6H83.605V146.08H89.685V150.56H83.605V160.2L84.965 161.52H89.685V166H82.445L78.325 161.92ZM112.026 138H116.986L127.226 166H121.706L119.426 159.8H109.586L107.306 166H101.786L112.026 138ZM118.226 155.32L114.506 144.68H114.426L110.826 155.32H118.226ZM129.845 146.08H134.725V149.4L138.045 146.08H144.485L148.925 150.52V166H143.645V151.96L142.285 150.56H138.925L135.125 154.4V166H129.845V146.08ZM153.117 161.84V150.24L157.237 146.08H168.677L172.797 150.24V161.84L168.677 166H157.237L153.117 161.84ZM166.117 161.6L167.517 160.2V151.88L166.117 150.48H159.797L158.397 151.88V160.2L159.797 161.6H166.117ZM178.403 161.92V150.52H174.803V146.08H178.483V139.6H183.683V146.08H189.763V150.56H183.683V160.2L185.043 161.52H189.763V166H182.523L178.403 161.92ZM193.166 137.44H198.446V149.16L201.526 146.08H207.886L212.326 150.52V166H207.046V151.96L205.686 150.56H202.246L198.446 154.4V166H193.166V137.44ZM216.516 161.92V150.24L220.636 146.08H231.876L236.036 150.24V157.8H221.796V160.36L223.076 161.68H229.596L230.796 160.44V159.4H235.996V162L232.036 166H220.556L216.516 161.92ZM230.756 154.12V151.8L229.396 150.4H223.156L221.796 151.8V154.12H230.756ZM240.236 146.08H245.116V149.4L248.316 146.08H253.996V150.56H249.396L245.516 154.56V166H240.236V146.08ZM267.702 138H285.262L289.262 142V149.84L287.662 151.48L290.502 154.36V161.68L286.182 166H267.702V138ZM282.462 149.72L283.902 148.28V143.96L282.502 142.56H273.022V149.72H282.462ZM283.422 161.44L285.142 159.72V155.8L283.422 154.08H273.022V161.44H283.422ZM293.898 161.92V150.24L298.018 146.08H309.258L313.418 150.24V157.8H299.178V160.36L300.458 161.68H306.978L308.178 160.44V159.4H313.378V162L309.418 166H297.938L293.898 161.92ZM308.138 154.12V151.8L306.778 150.4H300.538L299.178 151.8V154.12H308.138ZM319.419 161.92V150.52H315.819V146.08H319.499V139.6H324.699V146.08H330.779V150.56H324.699V160.2L326.059 161.52H330.779V166H323.539L319.419 161.92ZM335.981 161.92V150.52H332.381V146.08H336.061V139.6H341.261V146.08H347.341V150.56H341.261V160.2L342.621 161.52H347.341V166H340.101L335.981 161.92ZM349.758 161.92V150.24L353.878 146.08H365.118L369.278 150.24V157.8H355.038V160.36L356.318 161.68H362.838L364.038 160.44V159.4H369.238V162L365.278 166H353.798L349.758 161.92ZM363.998 154.12V151.8L362.638 150.4H356.398L355.038 151.8V154.12H363.998ZM373.478 146.08H378.358V149.4L381.558 146.08H387.238V150.56H382.638L378.758 154.56V166H373.478V146.08ZM400.544 161.4V142.6L405.144 138H419.544L424.144 142.6V161.4L419.544 166H405.144L400.544 161.4ZM416.664 161.36L418.704 159.32V144.68L416.664 142.64H408.024L405.984 144.68V159.32L408.024 161.36H416.664ZM430.552 150.52H426.952V146.08H430.552V142.12L434.592 138.08H441.952V142.44H436.872L435.752 143.56V146.08H441.952V150.52H435.832V166H430.552V150.52ZM464.687 166H459.407V150.56H451.847V166H446.567V150.56H442.967V146.08H446.567V142.2L450.607 138.16H458.127V142.56H452.967L451.847 143.68V146.08H464.687V166ZM469.094 161.92V150.16L473.134 146.08H484.094L488.214 150.24V153.92H482.934V151.96L481.534 150.56H475.774L474.374 151.96V160.12L475.774 161.52H481.534L482.934 160.12V158.16H488.214V161.84L484.094 166H473.134L469.094 161.92ZM491.398 161.92V150.24L495.518 146.08H506.758L510.918 150.24V157.8H496.678V160.36L497.958 161.68H504.478L505.678 160.44V159.4H510.878V162L506.918 166H495.438L491.398 161.92ZM505.638 154.12V151.8L504.278 150.4H498.038L496.678 151.8V154.12H505.638ZM514.319 153.44H536.599V158H514.319V153.44ZM540.588 137.44H545.868V149.16L548.948 146.08H555.308L559.748 150.52V166H554.468V151.96L553.108 150.56H549.668L545.868 154.4V166H540.588V137.44ZM563.938 161.84V150.24L568.058 146.08H579.498L583.618 150.24V161.84L579.498 166H568.058L563.938 161.84ZM576.938 161.6L578.338 160.2V151.88L576.938 150.48H570.618L569.218 151.88V160.2L570.618 161.6H576.938ZM587.809 161.8V146.08H593.089V160.16L594.449 161.52H597.649L601.569 157.6V146.08H606.849V166H601.969V162.6L598.529 166H592.009L587.809 161.8ZM611.642 146.08H616.522V149.4L619.722 146.08H625.402V150.56H620.802L616.922 154.56V166H611.642V146.08ZM639.108 138H656.668L660.668 142V149.84L659.068 151.48L661.908 154.36V161.68L657.588 166H639.108V138ZM653.868 149.72L655.308 148.28V143.96L653.908 142.56H644.428V149.72H653.868ZM654.828 161.44L656.548 159.72V155.8L654.828 154.08H644.428V161.44H654.828ZM665.305 161.84V150.24L669.425 146.08H680.865L684.985 150.24V161.84L680.865 166H669.425L665.305 161.84ZM678.305 161.6L679.705 160.2V151.88L678.305 150.48H671.985L670.585 151.88V160.2L671.985 161.6H678.305ZM690.591 161.92V150.52H686.991V146.08H690.671V139.6H695.871V146.08H701.951V150.56H695.871V160.2L697.231 161.52H701.951V166H694.711L690.591 161.92Z" fill="black"/>
<path d="M463.491 63.256H481.027L495.875 107.672H496.387L511.235 63.256H528.771L504.323 127H487.939L463.491 63.256ZM573.285 110.36H530.021V92.824L569.829 37.4H590.693V95.512H601.573V110.36H590.693V127H573.285V110.36ZM574.053 96.024V56.856H573.541L547.045 94.232V96.024H574.053ZM606.736 121.496V113.304L612.24 107.8H621.584L626.96 113.432V121.368L621.584 127H612.24L606.736 121.496ZM675.41 110.36H632.146V92.824L671.954 37.4H692.818V95.512H703.698V110.36H692.818V127H675.41V110.36ZM676.178 96.024V56.856H675.666L649.17 94.232V96.024H676.178Z" fill="black"/>
<path d="M46.2259 90.392L14.3539 37.4H33.4259L54.8019 74.136H55.0579L76.4339 37.4H95.5059L63.6339 90.392V127H46.2259V90.392Z" fill="#F8CB2E"/>
<path d="M128.887 37.4H144.759L177.527 127H159.863L152.567 107.16H121.079L113.783 127H96.1189L128.887 37.4ZM148.727 92.824L136.823 58.776H136.567L125.047 92.824H148.727Z" fill="#DF313E"/>
<path d="M186.549 37.4H242.741L255.541 50.2V75.288L250.421 80.536L259.509 89.752V113.176L245.685 127H186.549V37.4ZM233.781 74.904L238.389 70.296V56.472L233.909 51.992H203.573V74.904H233.781ZM236.853 112.408L242.357 106.904V94.36L236.853 88.856H203.573V112.408H236.853Z" fill="#FF7418"/>
<path d="M271.019 112.28V52.12L285.739 37.4H331.819L346.539 52.12V112.28L331.819 127H285.739L271.019 112.28ZM322.603 112.152L329.131 105.624V58.776L322.603 52.248H294.955L288.427 58.776V105.624L294.955 112.152H322.603Z" fill="#80ADE4"/>
<path d="M361.924 37.4H418.116L430.916 50.2V75.288L425.796 80.536L434.884 89.752V113.176L421.06 127H361.924V37.4ZM409.156 74.904L413.764 70.296V56.472L409.284 51.992H378.948V74.904H409.156ZM412.228 112.408L417.732 106.904V94.36L412.228 88.856H378.948V112.408H412.228Z" fill="#777777"/>
<path d="M54.2538 281.32V244.2H62.9578V278.312L66.2218 281.576H78.7658L82.0298 278.312V244.2H90.7338V281.32L83.0538 289H61.9338L54.2538 281.32ZM97.1463 282.728V278.824H105.466V280.616L106.874 282.088H117.242L118.65 280.616V277.864L117.178 276.328H103.418L97.4023 270.248V263.272L103.482 257.128H120.122L126.33 263.4V267.304H118.01V265.512L116.602 264.04H107.13L105.722 265.512V268.008L107.194 269.544H120.954L126.97 275.624V282.856L120.89 289H103.354L97.1463 282.728ZM132.419 282.472V263.784L139.011 257.128H156.995L163.651 263.784V275.88H140.867V279.976L142.915 282.088H153.347L155.267 280.104V278.44H163.587V282.6L157.251 289H138.883L132.419 282.472ZM155.203 269.992V266.28L153.027 264.04H143.043L140.867 266.28V269.992H155.203ZM170.371 257.128H178.179V262.44L183.299 257.128H192.387V264.296H185.027L178.819 270.696V289H170.371V257.128ZM211.756 244.2H220.524L225.964 275.816H226.22L235.116 244.2H241.644L250.348 275.816H250.604L256.044 244.2H264.812L255.532 289H247.404L238.508 257.512H238.252L229.164 289H221.036L211.756 244.2ZM268.676 250.472V246.376L271.62 243.432H276.1L279.044 246.376V250.472L276.1 253.416H271.62L268.676 250.472ZM269.636 257.128H278.084V289H269.636V257.128ZM286.434 243.304H294.882V268.84H300.45L308.578 257.128H317.922L307.298 272.488L318.562 289H309.218L300.258 276.008H294.882V289H286.434V243.304ZM322.426 250.472V246.376L325.37 243.432H329.85L332.794 246.376V250.472L329.85 253.416H325.37L322.426 250.472ZM323.386 257.128H331.834V289H323.386V257.128ZM357.941 244.2H366.645V262.952H385.589V244.2H394.293V289H385.589V270.376H366.645V289H357.941V244.2ZM401.669 282.344V263.784L408.261 257.128H426.565L433.157 263.784V282.344L426.565 289H408.261L401.669 282.344ZM422.469 281.96L424.709 279.72V266.408L422.469 264.168H412.357L410.117 266.408V279.72L412.357 281.96H422.469ZM440.184 257.128H447.992V262.376L453.176 257.128H461.24L465.592 261.544L469.944 257.128H481.08L487.928 264.04V289H479.48V266.536L477.304 264.296H471.928L468.536 267.688V289H460.344V266.408L458.296 264.296H454.456L448.632 270.184V289H440.184V257.128ZM494.669 282.472V263.784L501.261 257.128H519.245L525.901 263.784V275.88H503.117V279.976L505.165 282.088H515.597L517.517 280.104V278.44H525.837V282.6L519.501 289H501.133L494.669 282.472ZM517.453 269.992V266.28L515.277 264.04H505.293L503.117 266.28V269.992H517.453ZM532.621 257.128H540.429V261.8L545.101 257.128H557.517L564.109 263.784V282.344L557.517 289H545.165L541.069 285.608V302.568H532.621V257.128ZM553.421 281.832L555.661 279.592V266.536L553.421 264.296H546.189L541.069 269.48V277.288L546.125 281.832H553.421ZM570.161 283.112V275.816L576.049 269.928H592.241V265.896L590.257 263.912H580.657L578.737 265.896V267.688H570.417V264.04L577.265 257.128H593.713L600.561 264.04V289H592.945V284.456L588.209 289H576.049L570.161 283.112ZM587.633 282.472L592.241 278.056V275.944H580.209L578.481 277.672V280.872L580.081 282.472H587.633ZM638.782 257.128V296.296L631.87 303.144H614.526L608.574 297.256V292.904H617.022V294.824L618.238 296.104H628.158L630.334 293.864V284.84L625.918 289H613.886L607.294 282.344V263.784L613.886 257.128H626.43L630.974 261.48V257.128H638.782ZM630.334 268.2L625.982 264.296H618.174L615.742 266.792V279.336L618.174 281.832H625.15L630.334 276.52V268.2ZM645.794 282.472V263.784L652.386 257.128H670.37L677.026 263.784V275.88H654.242V279.976L656.29 282.088H666.722L668.642 280.104V278.44H676.962V282.6L670.626 289H652.258L645.794 282.472ZM668.578 269.992V266.28L666.402 264.04H656.418L654.242 266.28V269.992H668.578Z" fill="black"/>
<line x1="322" y1="207.5" x2="407" y2="207.5" stroke="black" stroke-width="7"/>
</svg>
