<svg width="622" height="321" viewBox="0 0 622 321" fill="none" xmlns="http://www.w3.org/2000/svg">
<rect x="2" y="2" width="618" height="317" rx="44" stroke="url(#paint0_linear_842_1361)" stroke-width="3"/>
<path d="M49.4055 168.848L41.4375 155.6H46.2055L51.5495 164.784H51.6135L56.9575 155.6H61.7255L53.7575 168.848V178H49.4055V168.848ZM60.4438 174.736V165.392L63.7398 162.064H72.7318L76.0598 165.392V171.44H64.6678V173.488L65.6918 174.544H70.9078L71.8678 173.552V172.72H76.0278V174.8L72.8598 178H63.6758L60.4438 174.736ZM71.8358 168.496V166.64L70.7478 165.52H65.7558L64.6678 166.64V168.496H71.8358ZM80.86 174.736V165.616H77.98V162.064H80.924V156.88H85.084V162.064H89.948V165.648H85.084V173.36L86.172 174.416H89.948V178H84.156L80.86 174.736ZM107.821 155.6H111.789L119.981 178H115.565L113.741 173.04H105.869L104.045 178H99.6288L107.821 155.6ZM112.781 169.456L109.805 160.944H109.741L106.861 169.456H112.781ZM122.076 162.064H125.98V164.72L128.636 162.064H133.788L137.34 165.616V178H133.116V166.768L132.028 165.648H129.34L126.3 168.72V178H122.076V162.064ZM140.694 174.672V165.392L143.99 162.064H153.142L156.438 165.392V174.672L153.142 178H143.99L140.694 174.672ZM151.094 174.48L152.214 173.36V166.704L151.094 165.584H146.038L144.918 166.704V173.36L146.038 174.48H151.094ZM160.923 174.736V165.616H158.043V162.064H160.987V156.88H165.147V162.064H170.011V165.648H165.147V173.36L166.235 174.416H170.011V178H164.219L160.923 174.736ZM172.733 155.152H176.957V164.528L179.421 162.064H184.509L188.061 165.616V178H183.837V166.768L182.749 165.648H179.997L176.957 168.72V178H172.733V155.152ZM191.413 174.736V165.392L194.709 162.064H203.701L207.029 165.392V171.44H195.637V173.488L196.661 174.544H201.877L202.837 173.552V172.72H206.997V174.8L203.829 178H194.645L191.413 174.736ZM202.805 168.496V166.64L201.717 165.52H196.725L195.637 166.64V168.496H202.805ZM210.389 162.064H214.293V164.72L216.853 162.064H221.397V165.648H217.717L214.613 168.848V178H210.389V162.064ZM232.361 155.6H246.409L249.609 158.8V165.072L248.329 166.384L250.601 168.688V174.544L247.145 178H232.361V155.6ZM244.169 164.976L245.321 163.824V160.368L244.201 159.248H236.617V164.976H244.169ZM244.937 174.352L246.313 172.976V169.84L244.937 168.464H236.617V174.352H244.937ZM253.319 174.736V165.392L256.615 162.064H265.607L268.935 165.392V171.44H257.543V173.488L258.567 174.544H263.783L264.743 173.552V172.72H268.903V174.8L265.735 178H256.551L253.319 174.736ZM264.711 168.496V166.64L263.623 165.52H258.631L257.543 166.64V168.496H264.711ZM273.735 174.736V165.616H270.855V162.064H273.799V156.88H277.959V162.064H282.823V165.648H277.959V173.36L279.047 174.416H282.823V178H277.031L273.735 174.736ZM286.985 174.736V165.616H284.105V162.064H287.049V156.88H291.209V162.064H296.073V165.648H291.209V173.36L292.297 174.416H296.073V178H290.281L286.985 174.736ZM298.006 174.736V165.392L301.302 162.064H310.294L313.622 165.392V171.44H302.23V173.488L303.254 174.544H308.47L309.43 173.552V172.72H313.59V174.8L310.422 178H301.238L298.006 174.736ZM309.398 168.496V166.64L308.31 165.52H303.318L302.23 166.64V168.496H309.398ZM316.983 162.064H320.887V164.72L323.447 162.064H327.991V165.648H324.311L321.207 168.848V178H316.983V162.064ZM338.635 174.32V159.28L342.315 155.6H353.835L357.515 159.28V174.32L353.835 178H342.315L338.635 174.32ZM351.531 174.288L353.163 172.656V160.944L351.531 159.312H344.619L342.987 160.944V172.656L344.619 174.288H351.531ZM362.641 165.616H359.761V162.064H362.641V158.896L365.873 155.664H371.761V159.152H367.697L366.801 160.048V162.064H371.761V165.616H366.865V178H362.641V165.616ZM389.95 178H385.726V165.648H379.678V178H375.454V165.648H372.574V162.064H375.454V158.96L378.686 155.728H384.702V159.248H380.574L379.678 160.144V162.064H389.95V178ZM393.475 174.736V165.328L396.707 162.064H405.475L408.771 165.392V168.336H404.547V166.768L403.427 165.648H398.819L397.699 166.768V173.296L398.819 174.416H403.427L404.547 173.296V171.728H408.771V174.672L405.475 178H396.707L393.475 174.736ZM411.319 174.736V165.392L414.615 162.064H423.607L426.935 165.392V171.44H415.543V173.488L416.567 174.544H421.783L422.743 173.552V172.72H426.903V174.8L423.735 178H414.551L411.319 174.736ZM422.711 168.496V166.64L421.623 165.52H416.631L415.543 166.64V168.496H422.711ZM429.655 167.952H447.479V171.6H429.655V167.952ZM450.67 155.152H454.894V164.528L457.358 162.064H462.446L465.998 165.616V178H461.774V166.768L460.686 165.648H457.934L454.894 168.72V178H450.67V155.152ZM469.35 174.672V165.392L472.646 162.064H481.798L485.094 165.392V174.672L481.798 178H472.646L469.35 174.672ZM479.75 174.48L480.87 173.36V166.704L479.75 165.584H474.694L473.574 166.704V173.36L474.694 174.48H479.75ZM488.448 174.64V162.064H492.672V173.328L493.76 174.416H496.32L499.456 171.28V162.064H503.68V178H499.776V175.28L497.024 178H491.808L488.448 174.64ZM507.514 162.064H511.418V164.72L513.978 162.064H518.522V165.648H514.842L511.738 168.848V178H507.514V162.064ZM529.486 155.6H543.534L546.734 158.8V165.072L545.454 166.384L547.726 168.688V174.544L544.27 178H529.486V155.6ZM541.294 164.976L542.446 163.824V160.368L541.326 159.248H533.742V164.976H541.294ZM542.062 174.352L543.438 172.976V169.84L542.062 168.464H533.742V174.352H542.062ZM550.444 174.672V165.392L553.74 162.064H562.892L566.188 165.392V174.672L562.892 178H553.74L550.444 174.672ZM560.844 174.48L561.964 173.36V166.704L560.844 165.584H555.788L554.668 166.704V173.36L555.788 174.48H560.844ZM570.673 174.736V165.616H567.793V162.064H570.737V156.88H574.897V162.064H579.761V165.648H574.897V173.36L575.985 174.416H579.761V178H573.969L570.673 174.736Z" fill="black"/>
<path d="M129.122 98.392L97.25 45.4H116.322L137.698 82.136H137.954L159.33 45.4H178.402L146.53 98.392V135H129.122V98.392Z" fill="#F8CB2E"/>
<path d="M200.283 45.4H216.155L248.923 135H231.259L223.963 115.16H192.475L185.179 135H167.515L200.283 45.4ZM220.123 100.824L208.219 66.776H207.963L196.443 100.824H220.123Z" fill="#DF313E"/>
<path d="M257.945 45.4H314.137L326.937 58.2V83.288L321.817 88.536L330.905 97.752V121.176L317.081 135H257.945V45.4ZM305.177 82.904L309.785 78.296V64.472L305.305 59.992H274.969V82.904H305.177ZM308.249 120.408L313.753 114.904V102.36L308.249 96.856H274.969V120.408H308.249Z" fill="#FF7418"/>
<path d="M342.415 120.28V60.12L357.135 45.4H403.215L417.935 60.12V120.28L403.215 135H357.135L342.415 120.28ZM393.999 120.152L400.527 113.624V66.776L393.999 60.248H366.351L359.823 66.776V113.624L366.351 120.152H393.999Z" fill="#80ADE4"/>
<path d="M433.32 45.4H489.512L502.312 58.2V83.288L497.192 88.536L506.28 97.752V121.176L492.456 135H433.32V45.4ZM480.552 82.904L485.16 78.296V64.472L480.68 59.992H450.344V82.904H480.552ZM483.624 120.408L489.128 114.904V102.36L483.624 96.856H450.344V120.408H483.624Z" fill="#696969"/>
<path d="M81.4403 265.24V237.4H87.9683V262.984L90.4163 265.432H99.8243L102.272 262.984V237.4H108.8V265.24L103.04 271H87.2003L81.4403 265.24ZM113.61 266.296V263.368H119.85V264.712L120.906 265.816H128.682L129.738 264.712V262.648L128.634 261.496H118.314L113.802 256.936V251.704L118.362 247.096H130.842L135.498 251.8V254.728H129.258V253.384L128.202 252.28H121.098L120.042 253.384V255.256L121.146 256.408H131.466L135.978 260.968V266.392L131.418 271H118.266L113.61 266.296ZM140.064 266.104V252.088L145.008 247.096H158.496L163.488 252.088V261.16H146.4V264.232L147.936 265.816H155.76L157.2 264.328V263.08H163.44V266.2L158.688 271H144.912L140.064 266.104ZM157.152 256.744V253.96L155.52 252.28H148.032L146.4 253.96V256.744H157.152ZM168.528 247.096H174.384V251.08L178.224 247.096H185.04V252.472H179.52L174.864 257.272V271H168.528V247.096ZM199.567 237.4H206.143L210.223 261.112H210.415L217.087 237.4H221.983L228.511 261.112H228.703L232.783 237.4H239.359L232.399 271H226.303L219.631 247.384H219.439L212.623 271H206.527L199.567 237.4ZM242.257 242.104V239.032L244.465 236.824H247.825L250.033 239.032V242.104L247.825 244.312H244.465L242.257 242.104ZM242.977 247.096H249.313V271H242.977V247.096ZM255.575 236.728H261.911V255.88H266.087L272.183 247.096H279.191L271.223 258.616L279.671 271H272.663L265.943 261.256H261.911V271H255.575V236.728ZM282.57 242.104V239.032L284.778 236.824H288.138L290.346 239.032V242.104L288.138 244.312H284.778L282.57 242.104ZM283.29 247.096H289.626V271H283.29V247.096ZM309.206 237.4H315.734V251.464H329.942V237.4H336.47V271H329.942V257.032H315.734V271H309.206V237.4ZM342.002 266.008V252.088L346.946 247.096H360.674L365.618 252.088V266.008L360.674 271H346.946L342.002 266.008ZM357.602 265.72L359.282 264.04V254.056L357.602 252.376H350.018L348.338 254.056V264.04L350.018 265.72H357.602ZM370.888 247.096H376.744V251.032L380.632 247.096H386.68L389.944 250.408L393.208 247.096H401.56L406.696 252.28V271H400.36V254.152L398.728 252.472H394.696L392.152 255.016V271H386.008V254.056L384.472 252.472H381.592L377.224 256.888V271H370.888V247.096ZM411.752 266.104V252.088L416.696 247.096H430.184L435.176 252.088V261.16H418.088V264.232L419.624 265.816H427.448L428.888 264.328V263.08H435.128V266.2L430.376 271H416.6L411.752 266.104ZM428.84 256.744V253.96L427.208 252.28H419.72L418.088 253.96V256.744H428.84ZM440.216 247.096H446.072V250.6L449.576 247.096H458.888L463.832 252.088V266.008L458.888 271H449.624L446.552 268.456V281.176H440.216V247.096ZM455.816 265.624L457.496 263.944V254.152L455.816 252.472H450.392L446.552 256.36V262.216L450.344 265.624H455.816ZM468.371 266.584V261.112L472.787 256.696H484.931V253.672L483.443 252.184H476.243L474.803 253.672V255.016H468.563V252.28L473.699 247.096H486.035L491.171 252.28V271H485.459V267.592L481.907 271H472.787L468.371 266.584ZM481.475 266.104L484.931 262.792V261.208H475.907L474.611 262.504V264.904L475.811 266.104H481.475ZM519.836 247.096V276.472L514.652 281.608H501.644L497.18 277.192V273.928H503.516V275.368L504.428 276.328H511.868L513.5 274.648V267.88L510.188 271H501.164L496.22 266.008V252.088L501.164 247.096H510.572L513.98 250.36V247.096H519.836ZM513.5 255.4L510.236 252.472H504.38L502.556 254.344V263.752L504.38 265.624H509.612L513.5 261.64V255.4ZM525.095 266.104V252.088L530.039 247.096H543.527L548.519 252.088V261.16H531.431V264.232L532.967 265.816H540.791L542.231 264.328V263.08H548.471V266.2L543.719 271H529.943L525.095 266.104ZM542.183 256.744V253.96L540.551 252.28H533.063L531.431 253.96V256.744H542.183Z" fill="black"/>
<line x1="268" y1="206.5" x2="354.608" y2="206.5" stroke="black" stroke-width="7"/>
<defs>
<linearGradient id="paint0_linear_842_1361" x1="19.4025" y1="2.00001" x2="635.291" y2="234.704" gradientUnits="userSpaceOnUse">
<stop stop-color="#4383FF"/>
<stop offset="1" stop-color="#FF6FCE"/>
</linearGradient>
</defs>
</svg>
